<svg width="446" height="262" viewBox="0 0 446 262" fill="none" xmlns="http://www.w3.org/2000/svg">
<path d="M16.1453 217.836L1.48254 174.426H16.1453H30.8081L45.4709 217.836L30.8081 261.246H16.1453H1.48254L16.1453 217.836Z" fill="white" fill-opacity="0.06"/>
<path d="M69.5179 217.836L54.8551 174.426H69.5179H84.1807L98.8435 217.836L84.1807 261.246H69.5179H54.8551L69.5179 217.836Z" fill="white" fill-opacity="0.06"/>
<path d="M122.891 217.836L108.228 174.426H122.891H137.553L152.216 217.836L137.553 261.246H122.891H108.228L122.891 217.836Z" fill="white" fill-opacity="0.06"/>
<path d="M176.263 217.836L161.6 174.426H176.263H190.926L205.589 217.836L190.926 261.246H176.263H161.6L176.263 217.836Z" fill="white" fill-opacity="0.06"/>
<path d="M229.636 217.836L214.973 174.426H229.636H244.298L258.961 217.836L244.298 261.246H229.636H214.973L229.636 217.836Z" fill="white" fill-opacity="0.06"/>
<path d="M283.009 217.836L268.346 174.426H283.009H297.671L312.334 217.836L297.671 261.246H283.009H268.346L283.009 217.836Z" fill="white" fill-opacity="0.06"/>
<path d="M336.381 217.836L321.718 174.426H336.381H351.044L365.706 217.836L351.044 261.246H336.381H321.718L336.381 217.836Z" fill="white" fill-opacity="0.06"/>
<path d="M389.754 217.836L375.091 174.426H389.754H404.416L419.079 217.836L404.416 261.246H389.754H375.091L389.754 217.836Z" fill="white" fill-opacity="0.06"/>
<path d="M42.5385 131.017L27.8757 87.6068H42.5385H57.2013L71.8641 131.017L57.2013 174.426H42.5385H27.8757L42.5385 131.017Z" fill="white" fill-opacity="0.06"/>
<path d="M95.911 131.017L81.2482 87.6068H95.911H110.574L125.237 131.017L110.574 174.426H95.911H81.2482L95.911 131.017Z" fill="white" fill-opacity="0.06"/>
<path d="M149.284 131.017L134.621 87.6068H149.284H163.946L178.609 131.017L163.946 174.426H149.284H134.621L149.284 131.017Z" fill="white" fill-opacity="0.06"/>
<path d="M202.656 131.017L187.993 87.6068H202.656H217.319L231.982 131.017L217.319 174.426H202.656H187.993L202.656 131.017Z" fill="white" fill-opacity="0.06"/>
<path d="M256.029 131.017L241.366 87.6068H256.029H270.691L285.354 131.017L270.691 174.426H256.029H241.366L256.029 131.017Z" fill="white" fill-opacity="0.06"/>
<path d="M309.401 131.017L294.739 87.6068H309.401H324.064L338.727 131.017L324.064 174.426H309.401H294.739L309.401 131.017Z" fill="white" fill-opacity="0.06"/>
<path d="M362.774 131.017L348.111 87.6069H362.774H377.437L392.099 131.017L377.437 174.426H362.774H348.111L362.774 131.017Z" fill="white" fill-opacity="0.06"/>
<path d="M416.147 131.017L401.484 87.6068H416.147H430.809L445.472 131.017L430.809 174.426H416.147H401.484L416.147 131.017Z" fill="white" fill-opacity="0.06"/>
<path d="M15.5589 44.197L0.896118 0.787231L15.5589 0.787231L30.2217 0.787231L44.8845 44.197L30.2217 87.6068H15.5589H0.896118L15.5589 44.197Z" fill="white" fill-opacity="0.06"/>
<path d="M68.9314 44.197L54.2686 0.787231L68.9314 0.787231L83.5942 0.787231L98.257 44.197L83.5942 87.6068H68.9314H54.2686L68.9314 44.197Z" fill="white" fill-opacity="0.06"/>
<path d="M122.304 44.197L107.641 0.787231L122.304 0.787231L136.967 0.787231L151.63 44.197L136.967 87.6068H122.304H107.641L122.304 44.197Z" fill="white" fill-opacity="0.06"/>
<path d="M175.677 44.197L161.014 0.787231L175.677 0.787231L190.34 0.787231L205.002 44.197L190.34 87.6068H175.677H161.014L175.677 44.197Z" fill="white" fill-opacity="0.06"/>
<path d="M229.049 44.197L214.386 0.787231L229.049 0.787231L243.712 0.787231L258.375 44.197L243.712 87.6068H229.049H214.386L229.049 44.197Z" fill="white" fill-opacity="0.06"/>
<path d="M282.422 44.197L267.759 0.787231L282.422 0.787231L297.085 0.787231L311.747 44.197L297.085 87.6068H282.422H267.759L282.422 44.197Z" fill="white" fill-opacity="0.06"/>
<path d="M335.794 44.197L321.132 0.787231L335.794 0.787231L350.457 0.787231L365.12 44.197L350.457 87.6068H335.794H321.132L335.794 44.197Z" fill="white" fill-opacity="0.06"/>
<path d="M389.167 44.197L374.504 0.787231L389.167 0.787231L403.83 0.787231L418.493 44.197L403.83 87.6068H389.167H374.504L389.167 44.197Z" fill="white" fill-opacity="0.06"/>
</svg>
