<svg width="16" height="17" viewBox="0 0 16 17" fill="none" xmlns="http://www.w3.org/2000/svg">
<path d="M8.1254 1.50993C4.40713 1.50993 1.3894 4.52766 1.3894 8.24593C1.3894 11.9642 4.40713 14.9819 8.1254 14.9819C11.8437 14.9819 14.8614 11.9642 14.8614 8.24593C14.8614 4.52766 11.8504 1.50993 8.1254 1.50993Z" fill="#90A3BF"/>
<rect x="2.51208" y="2.63264" width="11.2267" height="11.2267" rx="5.61333" fill="white"/>
<path d="M8.12543 3.7552C5.64658 3.7552 3.63477 5.76701 3.63477 8.24586C3.63477 10.7247 5.64658 12.7365 8.12543 12.7365C10.6043 12.7365 12.6161 10.7247 12.6161 8.24586C12.6161 5.76701 10.6088 3.7552 8.12543 3.7552Z" fill="#90A3BF"/>
<rect x="9.24792" y="7.1232" width="4.49067" height="2.24533" fill="#90A3BF"/>
<rect x="2.51208" y="7.12318" width="4.49067" height="2.24533" fill="#90A3BF"/>
<rect x="7.00281" y="9.36862" width="2.24533" height="4.49067" fill="#90A3BF"/>
<rect x="4.75732" y="4.87789" width="6.736" height="6.736" rx="3.368" fill="white"/>
</svg>
