<svg width="16" height="17" viewBox="0 0 16 17" fill="none" xmlns="http://www.w3.org/2000/svg">
<path d="M8.12547 1.95721C4.40719 1.95721 1.38947 4.97494 1.38947 8.69321C1.38947 12.4115 4.40719 15.4292 8.12547 15.4292C11.8437 15.4292 14.8615 12.4115 14.8615 8.69321C14.8615 4.97494 11.8505 1.95721 8.12547 1.95721Z" fill="#90A3BF"/>
<rect x="2.51212" y="3.0799" width="11.2267" height="11.2267" rx="5.61333" fill="white"/>
<path d="M8.12543 4.20264C5.64658 4.20264 3.63477 6.21446 3.63477 8.6933C3.63477 11.1722 5.64658 13.184 8.12543 13.184C10.6043 13.184 12.6161 11.1722 12.6161 8.6933C12.6161 6.21446 10.6088 4.20264 8.12543 4.20264Z" fill="#90A3BF"/>
<rect x="9.24802" y="7.57062" width="4.49067" height="2.24533" fill="#90A3BF"/>
<rect x="2.51205" y="7.57074" width="4.49067" height="2.24533" fill="#90A3BF"/>
<rect x="7.00287" y="9.81561" width="2.24533" height="4.49067" fill="#90A3BF"/>
<rect x="4.75745" y="5.32532" width="6.736" height="6.736" rx="3.368" fill="white"/>
</svg>
