<svg width="16" height="17" viewBox="0 0 16 17" fill="none" xmlns="http://www.w3.org/2000/svg">
<path d="M8.01853 1.95715C4.30026 1.95715 1.28253 4.97488 1.28253 8.69315C1.28253 12.4114 4.30026 15.4292 8.01853 15.4292C11.7368 15.4292 14.7545 12.4114 14.7545 8.69315C14.7545 4.97488 11.7435 1.95715 8.01853 1.95715Z" fill="#90A3BF"/>
<rect x="2.40533" y="3.0799" width="11.2267" height="11.2267" rx="5.61333" fill="white"/>
<path d="M8.0185 4.20258C5.53965 4.20258 3.52783 6.21439 3.52783 8.69324C3.52783 11.1721 5.53965 13.1839 8.0185 13.1839C10.4973 13.1839 12.5092 11.1721 12.5092 8.69324C12.5092 6.21439 10.5018 4.20258 8.0185 4.20258Z" fill="#90A3BF"/>
<rect x="9.14117" y="7.5705" width="4.49067" height="2.24533" fill="#90A3BF"/>
<rect x="2.40515" y="7.57074" width="4.49067" height="2.24533" fill="#90A3BF"/>
<rect x="6.89594" y="9.81561" width="2.24533" height="4.49067" fill="#90A3BF"/>
<rect x="4.65057" y="5.32526" width="6.736" height="6.736" rx="3.368" fill="white"/>
</svg>
