<svg width="55" height="55" viewBox="0 0 55 55" fill="none" xmlns="http://www.w3.org/2000/svg">
<rect x="0.852105" y="1.44915" width="52.7653" height="52.7653" rx="10.6653" stroke="#C3D4E9" stroke-opacity="0.4" stroke-width="1.12267"/>
<path d="M38.4615 21.6571H31.7255" stroke="#596780" stroke-width="1.684" stroke-miterlimit="10" stroke-linecap="round" stroke-linejoin="round"/>
<path d="M20.4989 21.6571H16.0082" stroke="#596780" stroke-width="1.684" stroke-miterlimit="10" stroke-linecap="round" stroke-linejoin="round"/>
<path d="M24.9896 25.5865C27.1597 25.5865 28.9189 23.8272 28.9189 21.6571C28.9189 19.487 27.1597 17.7278 24.9896 17.7278C22.8195 17.7278 21.0602 19.487 21.0602 21.6571C21.0602 23.8272 22.8195 25.5865 24.9896 25.5865Z" stroke="#596780" stroke-width="1.684" stroke-miterlimit="10" stroke-linecap="round" stroke-linejoin="round"/>
<path d="M38.4616 34.0063H33.9709" stroke="#596780" stroke-width="1.684" stroke-miterlimit="10" stroke-linecap="round" stroke-linejoin="round"/>
<path d="M22.7442 34.0063H16.0082" stroke="#596780" stroke-width="1.684" stroke-miterlimit="10" stroke-linecap="round" stroke-linejoin="round"/>
<path d="M29.4802 37.9357C31.6503 37.9357 33.4096 36.1765 33.4096 34.0064C33.4096 31.8362 31.6503 30.077 29.4802 30.077C27.3101 30.077 25.5509 31.8362 25.5509 34.0064C25.5509 36.1765 27.3101 37.9357 29.4802 37.9357Z" stroke="#596780" stroke-width="1.684" stroke-miterlimit="10" stroke-linecap="round" stroke-linejoin="round"/>
</svg>
