<svg width="55" height="54" viewBox="0 0 55 54" fill="none" xmlns="http://www.w3.org/2000/svg">
<rect x="0.851983" y="0.609917" width="52.7653" height="52.7653" rx="10.6653" stroke="#C3D4E9" stroke-opacity="0.4" stroke-width="1.12267"/>
<path d="M38.4612 20.818H31.7252" stroke="#596780" stroke-width="1.684" stroke-miterlimit="10" stroke-linecap="round" stroke-linejoin="round"/>
<path d="M20.4986 20.818H16.0079" stroke="#596780" stroke-width="1.684" stroke-miterlimit="10" stroke-linecap="round" stroke-linejoin="round"/>
<path d="M24.9893 24.7473C27.1594 24.7473 28.9186 22.9881 28.9186 20.818C28.9186 18.6479 27.1594 16.8887 24.9893 16.8887C22.8192 16.8887 21.0599 18.6479 21.0599 20.818C21.0599 22.9881 22.8192 24.7473 24.9893 24.7473Z" stroke="#596780" stroke-width="1.684" stroke-miterlimit="10" stroke-linecap="round" stroke-linejoin="round"/>
<path d="M38.4612 33.1672H33.9706" stroke="#596780" stroke-width="1.684" stroke-miterlimit="10" stroke-linecap="round" stroke-linejoin="round"/>
<path d="M22.7439 33.1672H16.0079" stroke="#596780" stroke-width="1.684" stroke-miterlimit="10" stroke-linecap="round" stroke-linejoin="round"/>
<path d="M29.4799 37.0966C31.65 37.0966 33.4092 35.3374 33.4092 33.1672C33.4092 30.9971 31.65 29.2379 29.4799 29.2379C27.3098 29.2379 25.5505 30.9971 25.5505 33.1672C25.5505 35.3374 27.3098 37.0966 29.4799 37.0966Z" stroke="#596780" stroke-width="1.684" stroke-miterlimit="10" stroke-linecap="round" stroke-linejoin="round"/>
</svg>
