<svg width="15" height="15" viewBox="0 0 15 15" fill="none" xmlns="http://www.w3.org/2000/svg">
<path fill-rule="evenodd" clip-rule="evenodd" d="M6.9694 2.64462C7.00818 2.52166 7.08514 2.41427 7.18911 2.33804C7.29308 2.2618 7.41865 2.2207 7.54758 2.2207C7.6765 2.2207 7.80207 2.2618 7.90604 2.33804C8.01001 2.41427 8.08698 2.52166 8.12575 2.64462L9.16983 5.85544H12.5378C12.6714 5.8504 12.8029 5.8892 12.9123 5.96594C13.0217 6.04267 13.103 6.15311 13.1437 6.28038C13.1844 6.40766 13.1824 6.54476 13.1378 6.67076C13.0933 6.79675 13.0087 6.9047 12.8971 6.97811L10.1634 8.95962L11.2075 12.1761C11.2488 12.2986 11.2498 12.4311 11.2104 12.5542C11.1711 12.6774 11.0934 12.7847 10.9887 12.8606C10.884 12.9365 10.7578 12.9769 10.6285 12.9759C10.4992 12.9749 10.3736 12.9327 10.27 12.8553L7.53074 10.8513L4.79704 12.8384C4.69348 12.9158 4.56789 12.9581 4.4386 12.9591C4.30931 12.96 4.18311 12.9196 4.07841 12.8438C3.97371 12.7679 3.89601 12.6606 3.85665 12.5374C3.81728 12.4142 3.81833 12.2817 3.85962 12.1592L4.9037 8.94278L2.17 6.96127C2.05835 6.88786 1.97379 6.77991 1.92926 6.65392C1.88473 6.52792 1.88267 6.39082 1.9234 6.26354C1.96412 6.13627 2.0454 6.02583 2.1548 5.9491C2.26421 5.87236 2.39572 5.83356 2.52926 5.8386H5.89726L6.9694 2.64462Z" fill="#FBAD39"/>
</svg>
