<svg width="15" height="15" viewBox="0 0 15 15" fill="none" xmlns="http://www.w3.org/2000/svg">
<path fill-rule="evenodd" clip-rule="evenodd" d="M7.04411 2.64462C7.08288 2.52166 7.15985 2.41427 7.26382 2.33804C7.36779 2.2618 7.49336 2.2207 7.62228 2.2207C7.75121 2.2207 7.87678 2.2618 7.98075 2.33804C8.08472 2.41427 8.16168 2.52166 8.20046 2.64462L9.24454 5.85544H12.6125C12.7461 5.8504 12.8776 5.8892 12.987 5.96594C13.0964 6.04267 13.1777 6.15311 13.2184 6.28038C13.2591 6.40766 13.2571 6.54476 13.2125 6.67076C13.168 6.79675 13.0834 6.9047 12.9718 6.97811L10.2381 8.95962L11.2822 12.1761C11.3235 12.2986 11.3245 12.4311 11.2851 12.5542C11.2458 12.6774 11.1681 12.7847 11.0634 12.8606C10.9587 12.9365 10.8325 12.9769 10.7032 12.9759C10.5739 12.9749 10.4483 12.9327 10.3448 12.8553L7.60544 10.8513L4.87175 12.8384C4.76819 12.9158 4.64259 12.9581 4.51331 12.9591C4.38402 12.96 4.25781 12.9196 4.15312 12.8438C4.04842 12.7679 3.97072 12.6606 3.93135 12.5374C3.89199 12.4142 3.89303 12.2817 3.93432 12.1592L4.9784 8.94278L2.24471 6.96127C2.13305 6.88786 2.0485 6.77991 2.00397 6.65392C1.95944 6.52792 1.95738 6.39082 1.9981 6.26354C2.03883 6.13627 2.12011 6.02583 2.22951 5.9491C2.33891 5.87236 2.47043 5.83356 2.60396 5.8386H5.97196L7.04411 2.64462Z" fill="#FBAD39"/>
</svg>
