<svg width="15" height="15" viewBox="0 0 15 15" fill="none" xmlns="http://www.w3.org/2000/svg">
<path fill-rule="evenodd" clip-rule="evenodd" d="M7.00676 2.64462C7.04553 2.52166 7.12249 2.41427 7.22647 2.33804C7.33044 2.2618 7.45601 2.2207 7.58493 2.2207C7.71386 2.2207 7.83942 2.2618 7.9434 2.33804C8.04737 2.41427 8.12433 2.52166 8.1631 2.64462L9.20718 5.85544H12.5752C12.7087 5.8504 12.8402 5.8892 12.9496 5.96594C13.059 6.04267 13.1403 6.15311 13.181 6.28038C13.2218 6.40766 13.2197 6.54476 13.1752 6.67076C13.1307 6.79675 13.0461 6.9047 12.9344 6.97811L10.2007 8.95962L11.2448 12.1761C11.2861 12.2986 11.2872 12.4311 11.2478 12.5542C11.2084 12.6774 11.1307 12.7847 11.026 12.8606C10.9213 12.9365 10.7951 12.9769 10.6658 12.9759C10.5366 12.9749 10.411 12.9327 10.3074 12.8553L7.56809 10.8513L4.8344 12.8384C4.73084 12.9158 4.60524 12.9581 4.47595 12.9591C4.34667 12.96 4.22046 12.9196 4.11576 12.8438C4.01107 12.7679 3.93336 12.6606 3.894 12.5374C3.85464 12.4142 3.85568 12.2817 3.89697 12.1592L4.94105 8.94278L2.20736 6.96127C2.0957 6.88786 2.01114 6.77991 1.96661 6.65392C1.92208 6.52792 1.92002 6.39082 1.96075 6.26354C2.00148 6.13627 2.08275 6.02583 2.19216 5.9491C2.30156 5.87236 2.43308 5.83356 2.56661 5.8386H5.93461L7.00676 2.64462Z" fill="#FBAD39"/>
</svg>
