<svg width="15" height="15" viewBox="0 0 15 15" fill="none" xmlns="http://www.w3.org/2000/svg">
<path fill-rule="evenodd" clip-rule="evenodd" d="M6.93217 2.64462C6.97095 2.52166 7.04791 2.41427 7.15188 2.33804C7.25585 2.2618 7.38142 2.2207 7.51035 2.2207C7.63927 2.2207 7.76484 2.2618 7.86881 2.33804C7.97278 2.41427 8.04975 2.52166 8.08852 2.64462L9.1326 5.85544H12.5006C12.6341 5.8504 12.7656 5.8892 12.8751 5.96594C12.9845 6.04267 13.0657 6.15311 13.1065 6.28038C13.1472 6.40766 13.1451 6.54476 13.1006 6.67076C13.0561 6.79675 12.9715 6.9047 12.8599 6.97811L10.1262 8.95962L11.1702 12.1761C11.2115 12.2986 11.2126 12.4311 11.1732 12.5542C11.1338 12.6774 11.0561 12.7847 10.9514 12.8606C10.8467 12.9365 10.7205 12.9769 10.5913 12.9759C10.462 12.9749 10.3364 12.9327 10.2328 12.8553L7.49351 10.8513L4.75981 12.8384C4.65625 12.9158 4.53066 12.9581 4.40137 12.9591C4.27208 12.96 4.14588 12.9196 4.04118 12.8438C3.93648 12.7679 3.85878 12.6606 3.81942 12.5374C3.78005 12.4142 3.78109 12.2817 3.82239 12.1592L4.86647 8.94278L2.13277 6.96127C2.02111 6.88786 1.93656 6.77991 1.89203 6.65392C1.8475 6.52792 1.84544 6.39082 1.88617 6.26354C1.92689 6.13627 2.00817 6.02583 2.11757 5.9491C2.22697 5.87236 2.35849 5.83356 2.49203 5.8386H5.86003L6.93217 2.64462Z" stroke="#C3D4E9" stroke-width="1.684" stroke-linecap="round" stroke-linejoin="round"/>
</svg>
