<svg width="15" height="15" viewBox="0 0 15 15" fill="none" xmlns="http://www.w3.org/2000/svg">
<path fill-rule="evenodd" clip-rule="evenodd" d="M7.08146 2.64462C7.12024 2.52166 7.1972 2.41427 7.30117 2.33804C7.40515 2.2618 7.53071 2.2207 7.65964 2.2207C7.78856 2.2207 7.91413 2.2618 8.0181 2.33804C8.12207 2.41427 8.19904 2.52166 8.23781 2.64462L9.28189 5.85544H12.6499C12.7834 5.8504 12.9149 5.8892 13.0243 5.96594C13.1337 6.04267 13.215 6.15311 13.2558 6.28038C13.2965 6.40766 13.2944 6.54476 13.2499 6.67076C13.2054 6.79675 13.1208 6.9047 13.0091 6.97811L10.2755 8.95962L11.3195 12.1761C11.3608 12.2986 11.3619 12.4311 11.3225 12.5542C11.2831 12.6774 11.2054 12.7847 11.1007 12.8606C10.996 12.9365 10.8698 12.9769 10.7405 12.9759C10.6113 12.9749 10.4857 12.9327 10.3821 12.8553L7.6428 10.8513L4.9091 12.8384C4.80554 12.9158 4.67995 12.9581 4.55066 12.9591C4.42137 12.96 4.29517 12.9196 4.19047 12.8438C4.08577 12.7679 4.00807 12.6606 3.96871 12.5374C3.92935 12.4142 3.93039 12.2817 3.97168 12.1592L5.01576 8.94278L2.28206 6.96127C2.17041 6.88786 2.08585 6.77991 2.04132 6.65392C1.99679 6.52792 1.99473 6.39082 2.03546 6.26354C2.07618 6.13627 2.15746 6.02583 2.26686 5.9491C2.37627 5.87236 2.50778 5.83356 2.64132 5.8386H6.00932L7.08146 2.64462Z" fill="#FBAD39"/>
</svg>
