<svg width="16" height="17" viewBox="0 0 16 17" fill="none" xmlns="http://www.w3.org/2000/svg">
<path d="M14.7823 6.94474L13.4726 6.28986C13.2303 6.17198 12.929 6.26366 12.8111 6.50597C12.6867 6.75483 12.7849 7.04953 13.0272 7.16741L14.0685 7.68477L14.0685 10.8217L11.6127 10.8282L11.6127 4.10908C11.6127 2.7993 10.7351 2.14441 9.64801 2.14441L4.4089 2.14441C3.32178 2.14441 2.44423 2.7993 2.44423 4.10908L2.44423 14.751H1.4619C1.1934 14.751 0.970734 14.9737 0.970734 15.2422C0.970734 15.5107 1.1934 15.7334 1.4619 15.7334L12.595 15.7334C12.8635 15.7334 13.0862 15.5107 13.0862 15.2422C13.0862 14.9737 12.8635 14.751 12.595 14.751H11.6127V11.8106L14.5597 11.804C14.8347 11.804 15.0508 11.5814 15.0508 11.3129L15.0508 7.38352C15.0508 7.20015 14.9461 7.02988 14.7823 6.94474ZM4.08146 5.34682C4.08146 4.43652 4.63811 4.10908 5.3192 4.10908H8.74426C9.4188 4.10908 9.97546 4.43652 9.97546 5.34682V6.15233C9.97546 7.05608 9.4188 7.38352 8.73772 7.38352H5.3192C4.63811 7.38352 4.08146 7.05608 4.08146 6.14578V5.34682ZM4.4089 8.85702H6.37357C6.64207 8.85702 6.86473 9.07968 6.86473 9.34819C6.86473 9.61669 6.64207 9.83935 6.37357 9.83935H4.4089C4.1404 9.83935 3.91773 9.61669 3.91773 9.34819C3.91773 9.07968 4.1404 8.85702 4.4089 8.85702Z" fill="#90A3BF"/>
</svg>
