<svg width="17" height="17" viewBox="0 0 17 17" fill="none" xmlns="http://www.w3.org/2000/svg">
<path d="M6.48352 2.14441C4.76772 2.14441 3.3728 3.53932 3.3728 5.25513C3.3728 6.9382 4.68913 8.30036 6.40494 8.3593C6.45733 8.35276 6.50972 8.35276 6.54901 8.3593C6.56211 8.3593 6.56866 8.3593 6.58176 8.3593C6.58831 8.3593 6.58831 8.3593 6.59486 8.3593C8.27137 8.30036 9.5877 6.9382 9.59425 5.25513C9.59425 3.53932 8.19933 2.14441 6.48352 2.14441Z" fill="#90A3BF"/>
<path d="M9.8103 10.1013C7.98316 8.88322 5.00342 8.88322 3.16318 10.1013C2.33147 10.658 1.87305 11.4111 1.87305 12.2166C1.87305 13.0221 2.33147 13.7687 3.15663 14.3188C4.07347 14.9344 5.27847 15.2422 6.48346 15.2422C7.68846 15.2422 8.89346 14.9344 9.8103 14.3188C10.6355 13.7621 11.0939 13.0156 11.0939 12.2035C11.0873 11.398 10.6355 10.6514 9.8103 10.1013Z" fill="#90A3BF"/>
<path d="M13.6807 5.64151C13.7855 6.912 12.8817 8.02531 11.6309 8.17593C11.6244 8.17593 11.6244 8.17593 11.6178 8.17593H11.5982C11.5589 8.17593 11.5196 8.17593 11.4868 8.18903C10.8516 8.22177 10.2687 8.01876 9.82996 7.64547C10.5045 7.04297 10.8909 6.13923 10.8123 5.15689C10.7664 4.62643 10.5831 4.14182 10.308 3.72924C10.5569 3.60481 10.845 3.52622 11.1397 3.50003C12.4233 3.38869 13.5694 4.34483 13.6807 5.64151Z" fill="#90A3BF"/>
<path d="M14.9905 11.6992C14.9381 12.3344 14.532 12.8846 13.8509 13.2578C13.1961 13.618 12.3709 13.7883 11.5523 13.7687C12.0238 13.343 12.2989 12.8125 12.3513 12.2493C12.4167 11.4372 12.0304 10.6579 11.2576 10.0358C10.8188 9.68869 10.308 9.41364 9.75134 9.21062C11.1986 8.7915 13.0192 9.0731 14.1391 9.97684C14.7416 10.4615 15.0494 11.0705 14.9905 11.6992Z" fill="#90A3BF"/>
</svg>
